<?xml version="1.0" encoding="UTF-8"?>
<svg version="1.1" xmlns="http://www.w3.org/2000/svg" width="321" height="107">
<path d="M0 0 C1.36649185 -0.00788544 1.36649185 -0.00788544 2.7605896 -0.01593018 C5.77155712 -0.0291327 8.78199586 -0.0203911 11.79296875 -0.01025391 C13.88517356 -0.01227457 15.97737768 -0.01518594 18.06958008 -0.01895142 C22.45433254 -0.02337512 26.83890166 -0.01694213 31.22363281 -0.00292969 C36.84622288 0.01416211 42.46838334 0.00432119 48.09095764 -0.01364708 C52.41120648 -0.0244836 56.73135333 -0.02103915 61.05160522 -0.0132637 C63.12486827 -0.01126134 65.19814056 -0.01372224 67.27139282 -0.02070236 C70.16815749 -0.02831455 73.06422481 -0.01671568 75.9609375 0 C76.81924164 -0.00607269 77.67754578 -0.01214539 78.56185913 -0.0184021 C81.8277563 0.01654107 84.43603429 0.18616 87.510849 1.32713318 C89.99909488 4.81674346 89.54389295 8.57923278 89.51391602 12.75317383 C89.52683937 14.19259842 89.52683937 14.19259842 89.5400238 15.66110229 C89.56276588 18.83993338 89.55592938 22.01788873 89.546875 25.19677734 C89.55210716 27.40251428 89.55838213 29.60824897 89.56565857 31.8139801 C89.57607821 36.44013994 89.57147909 41.06599249 89.55688477 45.69213867 C89.53970051 51.62548577 89.56318033 57.55786421 89.59837437 63.49110317 C89.62031845 68.04729145 89.61891398 72.60324693 89.61060905 77.15947151 C89.60978779 79.34717941 89.61668449 81.5349041 89.63138008 83.72256279 C89.64876897 86.78024968 89.63432958 89.83618304 89.61157227 92.89379883 C89.62911057 94.25374214 89.62911057 94.25374214 89.64700317 95.64115906 C89.58613075 99.65394282 89.50352554 101.7096998 87.00610352 104.94923401 C82.88201662 106.91059207 79.45476928 106.9490122 74.93920898 106.90576172 C74.03782196 106.912771 73.13643494 106.91978027 72.20773315 106.92700195 C69.23452764 106.94457702 66.26227733 106.93296182 63.2890625 106.91943359 C61.22070635 106.92212841 59.15235144 106.92601074 57.08399963 106.93103027 C52.75224733 106.93692447 48.42082522 106.92836385 44.08911133 106.90966797 C38.53481271 106.8868644 32.98128662 106.90001117 27.42701626 106.92395782 C23.15735543 106.93840564 18.88787807 106.93381469 14.61821175 106.92344666 C12.57006807 106.92077731 10.52190776 106.92405642 8.47378349 106.93336487 C5.61285075 106.94351515 2.75317314 106.92805123 -0.10766602 106.90576172 C-1.37873955 106.9179071 -1.37873955 106.9179071 -2.67549133 106.93029785 C-6.20962377 106.8792437 -8.43919302 106.71895411 -11.54417419 104.94923401 C-13.81115871 101.01400924 -13.57700967 97.36151563 -13.53710938 92.89379883 C-13.54411865 91.93243011 -13.55112793 90.9710614 -13.55834961 89.9805603 C-13.57595722 86.80233899 -13.56429764 83.62500773 -13.55078125 80.44677734 C-13.55347514 78.24007496 -13.55735669 76.03337373 -13.56237793 73.82667542 C-13.56827656 69.20228777 -13.5596972 64.57820916 -13.54101562 59.95385742 C-13.51821282 54.0194286 -13.53135572 48.08572281 -13.55530548 42.15132046 C-13.56974204 37.59518459 -13.56516749 33.03922089 -13.55479431 28.48307991 C-13.5521218 26.29455543 -13.55541512 24.10601544 -13.56471252 21.91750908 C-13.5748441 18.86230778 -13.55942468 15.80828694 -13.53710938 12.75317383 C-13.5452063 11.84452072 -13.55330322 10.93586761 -13.56164551 9.99967957 C-13.48072516 4.03541621 -13.48072516 4.03541621 -11.55090332 1.32713318 C-7.70205268 -0.10050235 -4.07490153 -0.02883084 0 0 Z M40.98046875 27.38818359 C42.46546875 28.37818359 42.46546875 28.37818359 43.98046875 29.38818359 C47.74317466 32.04960972 49.62277254 33.94481416 50.98046875 38.38818359 C51.64046875 38.05818359 52.30046875 37.72818359 52.98046875 37.38818359 C53.39772553 34.01417781 53.39772553 34.01417781 52.98046875 30.38818359 C50.03100667 27.61747679 48.21458549 27.39969753 44.16796875 27.20068359 C42.59015625 27.29349609 42.59015625 27.29349609 40.98046875 27.38818359 Z M24.85546875 32.20068359 C22.0664209 36.94206494 21.66413483 41.04010692 22.98046875 46.38818359 C27.62416778 53.21715275 35.64283418 56.47194673 42.94140625 59.74755859 C45.98223307 61.38913606 47.37981697 62.3628382 48.98046875 65.38818359 C49.30859375 67.64208984 49.30859375 67.64208984 49.23046875 69.95068359 C49.215 70.71509766 49.19953125 71.47951172 49.18359375 72.26708984 C48.98046875 74.38818359 48.98046875 74.38818359 47.98046875 77.38818359 C50.60499155 76.39267494 51.93075602 75.44854906 53.73046875 73.26318359 C55.3414032 69.55803437 55.65529541 66.32855077 54.98046875 62.38818359 C50.92630544 53.77308657 41.57796215 50.58899711 33.421875 46.72021484 C30.98046875 45.38818359 30.98046875 45.38818359 29.98046875 43.38818359 C29.32046875 43.38818359 28.66046875 43.38818359 27.98046875 43.38818359 C26.55189732 34.95961217 26.55189732 34.95961217 28.98046875 30.38818359 C26.76858209 30.17186806 26.76858209 30.17186806 24.85546875 32.20068359 Z M21.98046875 67.38818359 C21.98046875 70.68818359 21.98046875 73.98818359 21.98046875 77.38818359 C31.23970228 80.98658155 31.23970228 80.98658155 40.98046875 81.38818359 C41.97046875 80.72818359 42.96046875 80.06818359 43.98046875 79.38818359 C42.53414062 79.25863281 42.53414062 79.25863281 41.05859375 79.12646484 C39.7953125 78.98595703 38.53203125 78.84544922 37.23046875 78.70068359 C35.35101563 78.50925781 35.35101563 78.50925781 33.43359375 78.31396484 C29.29053765 77.20321338 28.27819609 75.91987562 25.98046875 72.38818359 C25.23796875 71.46005859 24.49546875 70.53193359 23.73046875 69.57568359 C23.15296875 68.85380859 22.57546875 68.13193359 21.98046875 67.38818359 Z " fill="#1D2C44" transform="translate(122.01953125,-0.38818359375)"/>
<path d="M0 0 C0.87702796 0.00359811 1.75405592 0.00719622 2.65766048 0.01090336 C3.58952647 0.01078282 4.52139246 0.01066229 5.48149681 0.0105381 C8.51281677 0.01128745 11.54407606 0.01891666 14.57538509 0.0267725 C16.440904 0.02824185 18.30642331 0.0292626 20.17194271 0.02982426 C27.10721102 0.03507793 34.04247052 0.04903899 40.97772884 0.06192875 C56.46710384 0.08255375 71.95647884 0.10317875 87.91522884 0.12442875 C87.91522884 35.10442875 87.91522884 70.08442875 87.91522884 106.12442875 C65.05241634 106.27911625 65.05241634 106.27911625 41.72772884 106.43692875 C36.91799496 106.48244877 32.10826107 106.52796879 27.15277767 106.5748682 C21.27204037 106.59745121 21.27204037 106.59745121 18.51756954 106.60164738 C16.59689702 106.60931716 14.67624833 106.62688614 12.75572872 106.65230656 C9.84338323 106.6889225 6.93250645 106.69395861 4.01996517 106.6920557 C3.16669801 106.71004624 2.31343084 106.72803679 1.4343071 106.74657249 C-2.88966475 106.7087677 -4.57062013 106.52595748 -8.09131718 103.77645206 C-11.52104845 99.21365432 -11.24403659 95.00504105 -11.26177311 89.5255518 C-11.26834431 88.64717655 -11.2749155 87.76880131 -11.28168583 86.86380863 C-11.3014099 83.95458739 -11.31307897 81.04541773 -11.32305241 78.1361475 C-11.32712793 77.14242445 -11.33120346 76.1487014 -11.33540249 75.12486553 C-11.35625863 69.86601437 -11.37056278 64.60718927 -11.37993717 59.3483057 C-11.39100545 53.91753929 -11.42541162 48.48718218 -11.46510887 43.05656052 C-11.49125494 38.87951235 -11.49962719 34.70256206 -11.50321865 30.52543926 C-11.50808917 28.52357879 -11.51971636 26.52172282 -11.53825665 24.51994228 C-11.56260696 21.7167945 -11.56169065 18.91471049 -11.55474186 16.1114893 C-11.56755192 15.28685688 -11.58036198 14.46222446 -11.59356022 13.61260319 C-11.5177754 5.21318311 -8.81509195 0.01535792 0 0 Z M27.91522884 30.12442875 C31.28985599 29.57719191 32.99757884 29.06952875 35.91522884 27.12442875 C31.64696011 27.12442875 30.97640453 27.50056388 27.91522884 30.12442875 Z M43.91522884 27.12442875 C46.81122256 29.19376627 46.81122256 29.19376627 49.91522884 30.37442875 C53.51037408 32.4715968 54.39421746 34.32190028 55.91522884 38.12442875 C56.57522884 38.12442875 57.23522884 38.12442875 57.91522884 38.12442875 C57.91522884 35.15442875 57.91522884 32.18442875 57.91522884 29.12442875 C53.2667337 26.72520545 49.00436811 26.92485466 43.91522884 27.12442875 Z M20.66132259 34.35880375 C15.21430094 39.86675405 12.91522884 46.99692786 12.91522884 54.67521 C13.47390095 62.34531249 15.5388607 68.40119814 20.91522884 74.12442875 C21.57522884 74.12442875 22.23522884 74.12442875 22.91522884 74.12442875 C22.91522884 74.78442875 22.91522884 75.44442875 22.91522884 76.12442875 C24.3300102 76.77438172 25.74714372 77.41921597 27.16522884 78.06192875 C27.95413509 78.42157719 28.74304134 78.78122562 29.55585384 79.1517725 C39.75163069 83.35499838 48.85481593 80.54925017 58.91522884 77.12442875 C59.24522884 70.85442875 59.57522884 64.58442875 59.91522884 58.12442875 C61.56522884 57.79442875 63.21522884 57.46442875 64.91522884 57.12442875 C64.91522884 56.79442875 64.91522884 56.46442875 64.91522884 56.12442875 C57.98522884 56.12442875 51.05522884 56.12442875 43.91522884 56.12442875 C43.91522884 56.45442875 43.91522884 56.78442875 43.91522884 57.12442875 C46.55522884 57.45442875 49.19522884 57.78442875 51.91522884 58.12442875 C51.91522884 64.39442875 51.91522884 70.66442875 51.91522884 77.12442875 C45.72430636 79.18806958 38.3612955 79.05224714 32.29022884 76.74942875 C31.50647884 76.21317875 30.72272884 75.67692875 29.91522884 75.12442875 C28.92522884 74.46442875 27.93522884 73.80442875 26.91522884 73.12442875 C26.42022884 71.63942875 26.42022884 71.63942875 25.91522884 70.12442875 C25.25522884 70.12442875 24.59522884 70.12442875 23.91522884 70.12442875 C20.64658741 58.9760267 18.41766617 46.5555964 24.16132259 35.78849125 C25.35883787 33.85482636 26.59397838 31.97518799 27.91522884 30.12442875 C24.68475611 30.12442875 22.99884586 32.27884542 20.66132259 34.35880375 Z " fill="#1F2E46" transform="translate(12.084771156311035,-0.12442874908447266)"/>
<path d="M0 0 C15.4275 -0.103125 30.855 -0.20625 46.75 -0.3125 C51.62104492 -0.35802002 56.49208984 -0.40354004 61.51074219 -0.45043945 C67.45947266 -0.47302246 67.45947266 -0.47302246 70.2444458 -0.47721863 C72.18932817 -0.48489607 74.13418676 -0.50248085 76.07891846 -0.52787781 C79.02536347 -0.56443255 81.9703547 -0.56953192 84.91699219 -0.56762695 C85.78322582 -0.58561749 86.64945946 -0.60360804 87.5419426 -0.62214375 C93.38008888 -0.5715512 93.38008888 -0.5715512 96.519104 2.32258606 C100.62976991 9.75454227 98.92376159 19.32801364 98.5625 27.5 C98.51029297 28.799375 98.45808594 30.09875 98.40429688 31.4375 C98.27538084 34.62524194 98.13848739 37.81265953 98 41 C92.72 41 87.44 41 82 41 C82 42.65 82 44.3 82 46 C87.61 46 93.22 46 99 46 C98.67 48.64 98.34 51.28 98 54 C91.07 54 84.14 54 77 54 C77 55.32 77 56.64 77 58 C83.93 58 90.86 58 98 58 C99 60 99 60 98 66 C92.72 66 87.44 66 82 66 C82 67.65 82 69.3 82 71 C87.61 71 93.22 71 99 71 C98.97185554 75.18329001 98.92869193 79.36090173 98.84741211 83.54272461 C98.82428497 84.96350702 98.80984874 86.38445958 98.80444336 87.80541992 C98.79511339 89.85442466 98.75404834 91.9007735 98.70703125 93.94921875 C98.6913208 95.17987061 98.67561035 96.41052246 98.65942383 97.6784668 C97.79377516 102.03875933 96.51383407 103.29846735 93 106 C89.9580412 106.70124794 87.00516429 106.63319703 83.89526367 106.56762695 C82.51160976 106.56853096 82.51160976 106.56853096 81.10000324 106.56945324 C78.12203931 106.56572915 75.1456517 106.52769451 72.16796875 106.48828125 C70.32638298 106.48092728 68.48478679 106.47582796 66.64318848 106.47302246 C59.82446599 106.44683743 53.00596741 106.37703097 46.1875 106.3125 C23.3246875 106.1578125 23.3246875 106.1578125 0 106 C0 71.02 0 36.04 0 0 Z M23 27 C24.98 27.99 24.98 27.99 27 29 C31.81256979 32.52416528 34.516295 35.94127681 37.375 41.125 C40.75671688 47.02052744 44.37540101 52.49234777 48.46875 57.92578125 C50 60 50 60 51 62 C51.66 62 52.32 62 53 62 C53.268125 62.70125 53.53625 63.4025 53.8125 64.125 C54.97016343 67.06971834 54.97016343 67.06971834 56.625 70 C58.00306075 73.006678 58.28670813 74.75064118 58 78 C56.68 78.66 55.36 79.32 54 80 C61.26 80 68.52 80 76 80 C72.23570226 78 72.23570226 78 69 77 C68.34 76.01 67.68 75.02 67 74 C66.34 74 65.68 74 65 74 C64.9071875 73.44570312 64.814375 72.89140625 64.71875 72.3203125 C63.80815374 69.38067023 62.3090059 67.35867613 60.5 64.875 C57.06622517 60.13245033 57.06622517 60.13245033 56 58 C55.34 58 54.68 58 54 58 C52.92474806 55.34771188 51.90543849 52.71631546 51 50 C50.34 50 49.68 50 49 50 C48.75507813 49.46246094 48.51015625 48.92492187 48.2578125 48.37109375 C46.11381938 44.32946696 43.32645755 40.69791445 40.6796875 36.97265625 C38.94929185 33.91025836 38.34227849 32.43808973 39 29 C39.99 28.34 40.98 27.68 42 27 C35.73 27 29.46 27 23 27 Z M56 27 C59.5527864 29.1490712 59.5527864 29.1490712 62 29 C62 30.65 62 32.3 62 34 C62.99 33.67 63.98 33.34 65 33 C65.33 32.34 65.66 31.68 66 31 C67.84765625 30.1484375 67.84765625 30.1484375 70.0625 29.375 C70.79597656 29.11460938 71.52945313 28.85421875 72.28515625 28.5859375 C72.85105469 28.39257812 73.41695312 28.19921875 74 28 C74 27.67 74 27.34 74 27 C68.06 27 62.12 27 56 27 Z M52 48 C53 50 53 50 53 50 Z M34 71 C35 73 35 73 35 73 Z M33 73 C32.29875 73.61875 31.5975 74.2375 30.875 74.875 C27.94222819 77.0427009 25.48817594 78.02655555 22 79 C22 79.33 22 79.66 22 80 C27.94 80 33.88 80 40 80 C37.22739701 78.06201737 37.22739701 78.06201737 35 77 C33.875 74.9375 33.875 74.9375 33 73 Z " fill="#202F47" transform="translate(220,0)"/>
<path d="M0 0 C6.93 0 13.86 0 21 0 C21.33 0.66 21.66 1.32 22 2 C22.69867188 1.84402344 23.39734375 1.68804688 24.1171875 1.52734375 C25.02726562 1.33269531 25.93734375 1.13804688 26.875 0.9375 C27.77992188 0.74027344 28.68484375 0.54304688 29.6171875 0.33984375 C32 0 32 0 34 1 C35.9959722 1.67863055 37.99568551 2.34641919 40 3 C40 4.65 40 6.3 40 8 C40.66 8.33 41.32 8.66 42 9 C41.67 11.31 41.34 13.62 41 16 C40.236875 16.103125 39.47375 16.20625 38.6875 16.3125 C35.6779138 17.08239414 34.80742498 17.5200448 33 20 C32.63680691 22.97192762 32.63680691 22.97192762 32.8125 26.1875 C32.83957031 27.27417969 32.86664063 28.36085938 32.89453125 29.48046875 C32.94673828 30.72763672 32.94673828 30.72763672 33 32 C29 27.375 29 27.375 29 24 C28.34 24 27.68 24 27 24 C25.4140625 22.0234375 25.4140625 22.0234375 23.625 19.375 C23.00753906 18.46105469 22.39007813 17.54710938 21.75390625 16.60546875 C20.88572266 15.31576172 20.88572266 15.31576172 20 14 C19.55527344 13.39800781 19.11054688 12.79601562 18.65234375 12.17578125 C16.3503252 9.03216452 15.44189401 6.90674193 16 3 C16.33 2.67 16.66 2.34 17 2 C13.04 2 9.08 2 5 2 C5 2.33 5 2.66 5 3 C3.35 3 1.7 3 0 3 C0 2.01 0 1.02 0 0 Z M30 22 C31 24 31 24 31 24 Z " fill="#2E3A50" transform="translate(242,26)"/>
<path d="M0 0 C0.66 0 1.32 0 2 0 C3.30839059 3.97018094 3.14030118 7.98820887 3.12939453 12.11743164 C3.13114685 12.9324968 3.13289917 13.74756195 3.13470459 14.58732605 C3.13910164 17.27829118 3.13619293 19.96919046 3.1328125 22.66015625 C3.13348609 24.53055331 3.13445658 26.40095029 3.13571167 28.27134705 C3.13718568 32.18945144 3.13504335 36.10753302 3.13037109 40.02563477 C3.12467005 45.0518198 3.12795707 50.07795148 3.13394356 55.10413456 C3.1375538 58.96537174 3.13640851 62.82659623 3.13381577 66.68783379 C3.13314799 68.54142704 3.13396973 70.39502144 3.13629532 72.24861336 C3.13882983 74.83642768 3.13497008 77.42415505 3.12939453 80.01196289 C3.13141876 80.78035492 3.13344299 81.54874695 3.13552856 82.34042358 C3.12290401 85.49735158 3.00602701 87.98191898 2 91 C1.34 91 0.68 91 0 91 C0 60.97 0 30.94 0 0 Z " fill="#434B5B" transform="translate(1,7)"/>
<path d="M0 0 C0.33 0 0.66 0 1 0 C1 30.69 1 61.38 1 93 C0.01 92.67 -0.98 92.34 -2 92 C-1.83826325 91.41882542 -1.67652651 90.83765083 -1.50988865 90.2388649 C-0.70085925 86.6865059 -0.82049466 83.09433951 -0.79467773 79.46777344 C-0.78477814 78.60887512 -0.77487854 77.74997681 -0.76467896 76.86505127 C-0.73312509 74.02985376 -0.70833068 71.1946395 -0.68359375 68.359375 C-0.66301895 66.39210579 -0.64202233 64.42484095 -0.62062073 62.45758057 C-0.56545445 57.28238465 -0.51602115 52.10714919 -0.46777344 46.93188477 C-0.41751868 41.64986659 -0.36185336 36.36790576 -0.30664062 31.0859375 C-0.19912562 20.72400733 -0.09766585 10.36202735 0 0 Z " fill="#151D2E" transform="translate(210,6)"/>
<path d="M0 0 C2.93055354 2.82589091 5.71777953 5.61893264 8 9 C7.75 11.3125 7.75 11.3125 7 13 C6.4225 13.103125 5.845 13.20625 5.25 13.3125 C2.88948084 13.88521263 2.88948084 13.88521263 0.9375 15.625 C-0.0215625 16.305625 -0.0215625 16.305625 -1 17 C-1.99 16.67 -2.98 16.34 -4 16 C-3.67 15.01 -3.34 14.02 -3 13 C-2.34 13.33 -1.68 13.66 -1 14 C-1 13.01 -1 12.02 -1 11 C-0.34 10.34 0.32 9.68 1 9 C0.505 8.05125 0.01 7.1025 -0.5 6.125 C-2 3 -2 3 -2 1 C-1.34 0.67 -0.68 0.34 0 0 Z " fill="#535B6B" transform="translate(262,49)"/>
<path d="M0 0 C-0.99 0.495 -0.99 0.495 -2 1 C3.61 1.33 9.22 1.66 15 2 C15 2.33 15 2.66 15 3 C10.93426305 3.9034971 7.14002343 4.01473924 3 3.9375 C-1.41400434 3.8880895 -4.90182371 4.17858832 -9 6 C-7.54266958 1.38512035 -7.54266958 1.38512035 -5.0625 -0.375 C-3 -1 -3 -1 0 0 Z " fill="#86909D" transform="translate(47,24)"/>
<path d="M0 0 C0 3.96 0 7.92 0 12 C-4 7.375 -4 7.375 -4 4 C-4.66 4 -5.32 4 -6 4 C-7.625 1.5 -7.625 1.5 -9 -1 C-4.98843085 -2.48576635 -4.51869696 -1.80747878 0 0 Z M-3 2 C-2 4 -2 4 -2 4 Z " fill="#6E7483" transform="translate(275,46)"/>
<path d="M0 0 C4.67692308 1.47692308 4.67692308 1.47692308 6.3125 4.125 C6.539375 4.74375 6.76625 5.3625 7 6 C6.16210938 5.67257813 5.32421875 5.34515625 4.4609375 5.0078125 C0.6687069 3.90352864 -2.43553543 3.80067048 -6.375 3.875 C-8.24285156 3.90207031 -8.24285156 3.90207031 -10.1484375 3.9296875 C-11.08945313 3.95289063 -12.03046875 3.97609375 -13 4 C-13 3.34 -13 2.68 -13 2 C-8.71 2 -4.42 2 0 2 C0 1.34 0 0.68 0 0 Z " fill="#808798" transform="translate(169,24)"/>
<path d="M0 0 C1.07765625 0.29648437 2.1553125 0.59296875 3.265625 0.8984375 C4.08546875 1.13820313 4.9053125 1.37796875 5.75 1.625 C5.75 1.955 5.75 2.285 5.75 2.625 C-2.665 3.12 -2.665 3.12 -11.25 3.625 C-10.25 0.625 -10.25 0.625 -8.578125 -0.6484375 C-5.32947744 -1.66227717 -3.24714454 -0.91767128 0 0 Z " fill="#1B263A" transform="translate(162.25,23.375)"/>
<path d="M0 0 C0.33 0 0.66 0 1 0 C1.12375 0.78375 1.2475 1.5675 1.375 2.375 C1.79117993 5.14057822 1.79117993 5.14057822 4 7 C3.625 9.125 3.625 9.125 3 11 C3.66 11.33 4.32 11.66 5 12 C4.38722388 14.96175123 3.74627478 16.38058783 2 19 C0.04978464 12.53991163 -0.22262303 6.7281627 0 0 Z " fill="#565E6F" transform="translate(32,47)"/>
<path d="M0 0 C2.9297008 2.82506863 5.50174717 5.78796065 8 9 C7.67 9.66 7.34 10.32 7 11 C4.1875 10.375 4.1875 10.375 1 9 C-2 4.2 -2 4.2 -2 1 C-1.34 0.67 -0.68 0.34 0 0 Z " fill="#6B7480" transform="translate(262,49)"/>
<path d="M0 0 C0.33 0 0.66 0 1 0 C1 1.65 1 3.3 1 5 C1.66 5.33 2.32 5.66 3 6 C2.67 8.31 2.34 10.62 2 13 C-0.76264289 13.59732819 -3.16032769 14 -6 14 C-5.195625 13.175 -4.39125 12.35 -3.5625 11.5 C-0.44499414 7.81887726 -0.24498936 4.73646089 0 0 Z " fill="#808A95" transform="translate(281,29)"/>
<path d="M0 0 C0 1.65 0 3.3 0 5 C-1.8125 5.625 -1.8125 5.625 -4 6 C-4.99 5.34 -5.98 4.68 -7 4 C-6.34 4 -5.68 4 -5 4 C-5 3.34 -5 2.68 -5 2 C-6.65 2 -8.3 2 -10 2 C-6.5980513 -0.09350689 -3.94727588 -0.17942163 0 0 Z " fill="#323E50" transform="translate(68,79)"/>
<path d="M0 0 C0.33 1.65 0.66 3.3 1 5 C-1.64 4.67 -4.28 4.34 -7 4 C-7 2.68 -7 1.36 -7 0 C-4.3333581 -1.33332095 -2.83319697 -0.67102033 0 0 Z " fill="#1C2A42" transform="translate(273,41)"/>
<path d="M0 0 C1.31571603 0.2547514 2.62760376 0.52934141 3.9375 0.8125 C4.66839844 0.96332031 5.39929688 1.11414062 6.15234375 1.26953125 C6.76207031 1.51058594 7.37179688 1.75164063 8 2 C8.33 2.99 8.66 3.98 9 5 C8.2575 4.95875 7.515 4.9175 6.75 4.875 C3.91241048 5.00398134 2.41226062 5.57051222 0 7 C0.2784375 6.1028125 0.2784375 6.1028125 0.5625 5.1875 C1.22093687 2.83591238 1.22093687 2.83591238 0 0 Z " fill="#374253" transform="translate(151,53)"/>
<path d="M0 0 C0.99 0.33 1.98 0.66 3 1 C1.515 6.445 1.515 6.445 0 12 C-2 10 -2 10 -2.25 6.5625 C-2 3 -2 3 0 0 Z " fill="#5E6572" transform="translate(26,40)"/>
<path d="M0 0 C0.33 0 0.66 0 1 0 C1.49230769 6.4 1.49230769 6.4 -1 9.4375 C-1.99 10.2109375 -1.99 10.2109375 -3 11 C-3.33 8.69 -3.66 6.38 -4 4 C-2.68 3.67 -1.36 3.34 0 3 C0 2.01 0 1.02 0 0 Z " fill="#273548" transform="translate(262,52)"/>
<path d="M0 0 C2.30142435 1.78174788 3.80034391 3.16304165 4.48828125 6.046875 C4.72323102 8.0246611 4.86751458 10.01271872 5 12 C4.01 12 3.02 12 2 12 C1.855625 10.948125 1.71125 9.89625 1.5625 8.8125 C1.12473034 5.84539451 0.62195134 2.93205634 0 0 Z " fill="#5A616E" transform="translate(274,66)"/>
<path d="M0 0 C2.97 0.33 5.94 0.66 9 1 C9 1.66 9 2.32 9 3 C10.45833358 4.62514468 10.45833358 4.62514468 12 6 C6.97734643 4.81819916 3.9050849 3.55007718 0 0 Z " fill="#6D717E" transform="translate(155,46)"/>
<path d="M0 0 C0.66 0 1.32 0 2 0 C1.67 1.98 1.34 3.96 1 6 C-0.65 6.33 -2.3 6.66 -4 7 C-2.92598892 4.08482708 -2.22189824 2.22189824 0 0 Z " fill="#646A78" transform="translate(40,30)"/>
<path d="M0 0 C4.455 0.99 4.455 0.99 9 2 C7.68 2.33 6.36 2.66 5 3 C4.67 3.66 4.34 4.32 4 5 C2.68 4.67 1.36 4.34 0 4 C0 2.68 0 1.36 0 0 Z " fill="#4C5562" transform="translate(39,78)"/>
<path d="M0 0 C0.99 0.66 1.98 1.32 3 2 C2.34 2 1.68 2 1 2 C1 2.99 1 3.98 1 5 C-0.32 5.33 -1.64 5.66 -3 6 C-3.33 7.65 -3.66 9.3 -4 11 C-4.33 10.01 -4.66 9.02 -5 8 C-3.6875 5.5 -3.6875 5.5 -2 3 C-1.34 2.01 -0.68 1.02 0 0 Z " fill="#9096A3" transform="translate(153,27)"/>
<path d="M0 0 C1.32 0.33 2.64 0.66 4 1 C-0.75 5.875 -0.75 5.875 -3 7 C-3.33 6.01 -3.66 5.02 -4 4 C-3.01 3.67 -2.02 3.34 -1 3 C-0.67 2.01 -0.34 1.02 0 0 Z " fill="#646A79" transform="translate(148,28)"/>
<path d="M0 0 C0.66 0.33 1.32 0.66 2 1 C1.75 2.875 1.75 2.875 1 5 C-1.0625 6.25 -1.0625 6.25 -3 7 C-1.125 1.125 -1.125 1.125 0 0 Z " fill="#4F5565" transform="translate(209,98)"/>
<path d="M0 0 C0.66 1.32 1.32 2.64 2 4 C1.34 4 0.68 4 0 4 C0 4.99 0 5.98 0 7 C-0.99 7 -1.98 7 -3 7 C-2.38722388 4.03824877 -1.74627478 2.61941217 0 0 Z " fill="#2B3747" transform="translate(278,41)"/>
<path d="M0 0 C1.4606285 2.64738916 2 3.89448334 2 7 C1.01 6.67 0.02 6.34 -1 6 C-0.67 5.01 -0.34 4.02 0 3 C-1.65 3 -3.3 3 -5 3 C-2 1 -2 1 0 0 Z " fill="#18253B" transform="translate(295,23)"/>
<path d="M0 0 C2 0 2 0 4.125 2 C4.74375 2.66 5.3625 3.32 6 4 C5.67 4.66 5.34 5.32 5 6 C3.68 5.67 2.36 5.34 1 5 C0.67 3.35 0.34 1.7 0 0 Z " fill="#585E6D" transform="translate(29,70)"/>
<path d="" fill="#FFFFFF" transform="translate(0,0)"/>
</svg>
