<?xml version="1.0" encoding="utf-8"?>
<!-- Generator: Adobe Illustrator 27.1.1, SVG Export Plug-In . SVG Version: 6.00 Build 0)  -->
<svg version="1.1" id="Camada_1" xmlns="http://www.w3.org/2000/svg" xmlns:xlink="http://www.w3.org/1999/xlink" x="0px" y="0px"
	 viewBox="0 0 235.6 257.7" style="enable-background:new 0 0 235.6 257.7;" xml:space="preserve">
<style type="text/css">
	.st0{fill:#003075;}
	.st1{fill:#00AFE9;}
	.st2{fill:#FFFFFF;}
	.st3{fill:#094B8F;}
	.st4{fill:#63A35E;}
	.st5{fill:#014683;}
	.st6{fill-rule:evenodd;clip-rule:evenodd;fill:#014683;}
	.st7{fill:#20AC4D;}
	.st8{fill:#4C4D4F;}
	.st9{fill-rule:evenodd;clip-rule:evenodd;fill:#F8A721;}
	.st10{fill-rule:evenodd;clip-rule:evenodd;fill:#5AB747;}
	.st11{fill:#0192D7;}
	.st12{fill-rule:evenodd;clip-rule:evenodd;fill:#4D4D4F;}
	.st13{fill:#4A4C4E;}
	.st14{font-family:'GalanoGrotesque-Medium';}
	.st15{font-size:39.5304px;}
</style>
<g>
	<path class="st2" d="M235.6,18.4v220.9c0,10.2-8.2,18.4-18.4,18.4H18.4C8.2,257.7,0,249.5,0,239.3V18.4C0,8.2,8.2,0,18.4,0h198.8
		C227.4,0,235.6,8.2,235.6,18.4z"/>
	<text transform="matrix(1 0 0 1 13.704 240.8225)" class="st0 st14 st15">certifica</text>
	<g>
		<g id="g28" transform="translate(60.122862,8.2478875)">
			<g id="g34" transform="translate(385.287,925.1557)">
				<path id="path36" class="st0" d="M-345-865.1c2.1-2.7,3.4-6.2,3.4-9.9c0-9-7.3-16.3-16.3-16.3h-29.8v22.5v10.1v22.5h15.2h17.2
					c9,0,16.3-7.3,16.3-16.3C-339-857.6-341.4-862.1-345-865.1 M-374.3-881.2h13.6c3.4,0,6.2,2.8,6.2,6.2c0,3.4-2.8,6.2-6.2,6.2
					h-13.6V-881.2z M-359.4-846.3h-14.8v-12.4h14.8c3.4,0,6.2,2.8,6.2,6.2S-356-846.3-359.4-846.3"/>
			</g>
			<g id="g38" transform="translate(414.1227,945.9205)">
				<path id="path40" class="st0" d="M-323.8-921.9c0,2-0.8,3.6-2.3,4.9c-1.5,1.3-3.5,1.9-5.9,1.9c-2.3,0-4.2-0.6-5.7-1.8
					c-1.5-1.2-2.5-2.8-2.8-4.8h6.1c0.5,1.2,1.3,1.8,2.5,1.8c0.7,0,1.3-0.2,1.8-0.6c0.5-0.4,0.7-0.9,0.7-1.5c0-0.6-0.2-1.1-0.7-1.5
					c-0.5-0.4-1.1-0.5-1.9-0.5h-2.1v-4.3h1.9c0.8,0,1.4-0.2,1.8-0.5c0.5-0.3,0.7-0.8,0.7-1.4c0-0.6-0.2-1.1-0.6-1.5
					c-0.4-0.4-1-0.6-1.7-0.6c-0.7,0-1.3,0.2-1.8,0.8c-0.3,0.3-0.5,0.7-0.6,1.2h-5.8c0.3-2.1,1.2-3.7,2.7-4.9
					c1.5-1.2,3.3-1.8,5.5-1.8c2.3,0,4.2,0.6,5.7,1.9c1.5,1.3,2.2,2.8,2.2,4.8c0,1.8-0.7,3.1-2.2,4.1
					C-324.7-925.3-323.8-923.8-323.8-921.9"/>
			</g>
		</g>
		<g id="g42" transform="translate(420.82826,954.58849)">
			<path id="path44" class="st0" d="M-363.1-923.1v-6.7h-20.8v89.7h20.8v-6.8h-14v-76.2H-363.1z"/>
		</g>
		<g id="g46" transform="translate(448.63506,910.63989)">
			<path id="path48" class="st0" d="M-342.7-802.9v6.8h20.8v-89.7h-20.8v6.7h14v76.2H-342.7z"/>
		</g>
	</g>
	<g>
		<path class="st0" d="M235.6,49L97.8,187c-4,4-9.2,6.2-14.9,6.2c-5.6,0-10.9-2.2-14.9-6.2l-68-68v-7.1l71.6,71.6
			c3,3,7.1,4.7,11.3,4.7s8.3-1.7,11.3-4.7L235.6,42V49z"/>
	</g>
</g>
</svg>
